<?xml version="1.0" encoding="UTF-8"?>
<svg id="Camada_2" data-name="Camada 2" xmlns="http://www.w3.org/2000/svg" viewBox="0 0 141.89 336.28">
  <defs>
    <style>
      .cls-1 {
        fill: #ccc;
      }
    </style>
  </defs>
  <g id="Camada_1-2" data-name="Camada 1">
    <path class="cls-1" d="M49.14,265.15V71.23c-5.76,2.56-11.29,5.02-16.83,7.48-5.92,2.63-11.82,5.31-17.77,7.85-5.34,2.27-9.75,1.4-12.48-2.27-2.89-3.89-2.84-8.94,.85-13.1C22.93,48.57,43.05,26.03,63.27,3.58c4.25-4.72,11.04-4.8,15.3-.08,20.32,22.52,40.51,45.17,60.61,67.89,3.59,4.06,3.48,9.34,.53,13.13-2.73,3.51-7.01,4.34-12.21,2.08-10.27-4.48-20.49-9.1-30.73-13.65-1.22-.54-2.46-1.02-3.99-1.64v193.78c2.33-.99,4.48-1.86,6.6-2.8,9.45-4.2,18.84-8.52,28.34-12.59,7.27-3.11,14.06,.64,13.91,7.95-.06,2.84-1.49,6.17-3.37,8.37-12.33,14.42-24.89,28.65-37.49,42.84-6.8,7.65-13.81,15.12-20.77,22.63-5.89,6.36-12.21,6.47-17.94,.08-19.51-21.74-39-43.5-58.29-65.44-1.97-2.24-3.46-5.75-3.48-8.68-.05-7.08,6.74-10.76,13.79-7.8,7.81,3.28,15.49,6.84,23.24,10.28,3.84,1.7,7.67,3.4,11.83,5.25Z"/>
  </g>
</svg>